<?xml version="1.0" encoding="utf-8"?>
<!-- Generator: Adobe Illustrator 16.0.0, SVG Export Plug-In . SVG Version: 6.00 Build 0)  -->
<!DOCTYPE svg PUBLIC "-//W3C//DTD SVG 1.1//EN" "http://www.w3.org/Graphics/SVG/1.1/DTD/svg11.dtd">
<svg version="1.1" id="Laag_1" xmlns="http://www.w3.org/2000/svg" xmlns:xlink="http://www.w3.org/1999/xlink" x="0px" y="0px"
	 width="200px" height="200px" viewBox="0 0 400 400" style="enable-background:new 0 0 400 400;" xml:space="preserve">
<style type="text/css">
<![CDATA[
	.st0{fill:#EEEEEE;}
	.st1{fill:#FFC121;}
	.st2{fill:#FFFFFF;}
]]>
</style>
<circle class="st0" cx="199.7" cy="200.2" r="0"/>
<polygon class="st1" points="287.4,139.2 107.8,139.2 123.5,122.9 271.7,122.9 "/>
<rect x="123.5" y="151.7" class="st1" width="148.2" height="141.6"/>
<rect x="183.8" y="238.9" class="st2" width="27.6" height="42.4"/>
<g>
	<path d="M214.4,284.3h-33.6v-48.4h33.6V284.3z M186.9,278.3h21.5V242h-21.5V278.3z"/>
</g>
<g>
	<path class="st2" d="M268.7,290.3H126.5V154.7h142.2V290.3z M132.6,284.3h130.1V160.7H132.6V284.3z"/>
</g>
<rect x="136.8" y="83.1" class="st1" width="121.6" height="39.7"/>
<g>
	<path d="M261.5,125.8H133.8V80.1h127.7V125.8z M139.8,119.7h115.6V86.1H139.8V119.7z"/>
</g>
<g>
	<path class="st2" d="M255.4,119.7H139.8V86.1h115.6V119.7z M145.9,113.7h103.5V92.1H145.9V113.7z"/>
</g>
<g>
	<path d="M159.2,92.3h4.7v21.2h-4.7v-8.4h-8.4v8.4h-4.7V92.3h4.7v8.9h8.4V92.3z"/>
	<path d="M187.2,110.6c-2.1,2.1-4.8,3.1-7.9,3.1c-3.1,0-5.8-1-7.9-3.1c-2.1-2.1-3.2-4.7-3.2-7.8c0-3.1,1.1-5.7,3.2-7.8
		c2.1-2.1,4.8-3.1,7.9-3.1c3.1,0,5.8,1,7.9,3.1c2.1,2.1,3.2,4.7,3.2,7.8C190.4,105.9,189.4,108.5,187.2,110.6z M185.6,102.8
		c0-1.9-0.6-3.5-1.8-4.8c-1.2-1.3-2.7-2-4.5-2s-3.3,0.7-4.5,2s-1.8,3-1.8,4.8s0.6,3.5,1.8,4.8c1.2,1.3,2.7,2,4.5,2s3.3-0.7,4.5-2
		C185,106.3,185.6,104.7,185.6,102.8z"/>
	<path d="M203.5,96.4v17.1h-4.7V96.4h-6v-4.1h16.8v4.1H203.5z"/>
	<path d="M230.5,92.3v4.2h-10.6v4.4h9.5v4h-9.5v4.4h10.9v4.2h-15.6V92.3H230.5z"/>
	<path d="M235.5,113.6V92.3h4.7v17h9.1v4.2H235.5z"/>
</g>
<g>
	<path d="M290.5,154.7H104.8V138l17.4-18.2H273l17.4,18.2V154.7z M110.8,148.7h173.6v-8.2l-14-14.5H124.8l-14,14.5V148.7z"/>
</g>
<g>
	<path d="M287.4,142.2H107.8c-1.7,0-3-1.4-3-3s1.4-3,3-3h179.6c1.7,0,3,1.4,3,3S289.1,142.2,287.4,142.2z"/>
</g>
<g>
	<path d="M139.8,125.9h-20.8l9-22.9h11.7V125.9z M128,119.9h5.8V109h-1.6L128,119.9z"/>
</g>
<g>
	<path d="M276.2,125.9h-20.8V103h11.7L276.2,125.9z M261.5,119.9h5.8L263,109h-1.6V119.9z"/>
</g>
<rect x="107.8" y="151.7" class="st1" width="15.7" height="141.6"/>
<g>
	<path d="M126.5,296.3h-21.7V148.7h21.7V296.3z M110.8,290.3h9.7V154.7h-9.7V290.3z"/>
</g>
<rect x="271.7" y="151.7" class="st1" width="15.7" height="141.6"/>
<g>
	<path d="M290.5,296.3h-21.7V148.7h21.7V296.3z M274.7,290.3h9.7V154.7h-9.7V290.3z"/>
</g>
<polygon class="st2" points="169.5,238.9 149.6,238.9 149.6,258.9 "/>
<g>
	<path d="M172.5,261.9h-26v-26h26V261.9z M152.6,255.8h13.9V242h-13.9V255.8z"/>
</g>
<rect x="149.6" y="204.5" class="st2" width="19.9" height="19.9"/>
<g>
	<path d="M172.5,227.5h-26v-26h26V227.5z M152.6,221.4h13.9v-13.9h-13.9V221.4z"/>
</g>
<polygon class="st2" points="169.5,170.4 149.6,170.4 149.6,190.3 "/>
<g>
	<path d="M172.5,193.3h-26v-26h26V193.3z M152.6,187.3h13.9v-13.9h-13.9V187.3z"/>
</g>
<polygon class="st2" points="245.7,238.7 225.7,238.7 225.7,258.6 "/>
<rect x="187.7" y="204.5" class="st2" width="19.9" height="19.9"/>
<g>
	<path d="M210.6,227.5h-26v-26h26V227.5z M190.7,221.4h13.9v-13.9h-13.9V221.4z"/>
</g>
<rect x="187.7" y="170.4" class="st2" width="19.9" height="19.9"/>
<g>
	<path d="M210.6,193.3h-26v-26h26V193.3z M190.7,187.3h13.9v-13.9h-13.9V187.3z"/>
</g>
<rect x="225.7" y="204.5" class="st2" width="19.9" height="19.9"/>
<g>
	<path d="M248.7,227.5h-26v-26h26V227.5z M228.8,221.4h13.9v-13.9h-13.9V221.4z"/>
</g>
<g>
	<path d="M248.7,261.6h-26v-26h26V261.6z M228.8,255.6h13.9v-13.9h-13.9V255.6z"/>
</g>
<polygon class="st2" points="245.7,170.4 225.7,170.4 225.7,190.3 "/>
<g>
	<path d="M248.7,193.3h-26v-26h26V193.3z M228.8,187.3h13.9v-13.9h-13.9V187.3z"/>
</g>
<g>
	<path d="M211.4,261.9H202c-1.7,0-3-1.4-3-3c0-1.7,1.4-3,3-3h9.4c1.7,0,3,1.4,3,3C214.4,260.5,213.1,261.9,211.4,261.9z"/>
</g>
<g>
	<path d="M301.2,296.3H94c-1.7,0-3-1.4-3-3c0-1.7,1.4-3,3-3h207.2c1.7,0,3,1.4,3,3C304.3,295,302.9,296.3,301.2,296.3z"/>
</g>
<rect x="161" y="281.3" class="st1" width="73.3" height="12"/>
<g>
	<path d="M237.3,296.3H158v-18h79.3V296.3z M164,290.3h67.3v-5.9H164V290.3z"/>
</g>
</svg>
